999
dxfrw 0.6.3
  0
SECTION
  2
HEADER
  9
$ACADVER
  1
AC1021
  9
$DWGCODEPAGE
  3
ANSI_1252
  9
$INSBASE
 10
0
 20
0
 30
0
  9
$EXTMIN
 10
-2.325917236589703e-013
 20
0
 30
0
  9
$EXTMAX
 10
200
 20
300
 30
0
  9
$LIMMIN
 10
0
 20
0
  9
$LIMMAX
 10
420
 20
297
  9
$ORTHOMODE
 70
    0
  9
$REGENMODE
 70
    1
  9
$FILLMODE
 70
    1
  9
$QTEXTMODE
 70
    0
  9
$MIRRTEXT
 70
    0
  9
$LTSCALE
 40
1
  9
$ATTMODE
 70
    0
  9
$TEXTSIZE
 40
2.5
  9
$TRACEWID
 40
15.68
  9
$TEXTSTYLE
  7
STANDARD
  9
$CLAYER
  8
base
  9
$CELTYPE
  6
BYLAYER
  9
$CECOLOR
 62
  256
  9
$CELTSCALE
 40
1
  9
$DISPSILH
 70
    0
  9
$DIMSCALE
 40
1
  9
$DIMASZ
 40
2.5
  9
$DIMEXO
 40
0.625
  9
$DIMDLI
 40
3.75
  9
$DIMRND
 40
0
  9
$DIMDLE
 40
0
  9
$DIMEXE
 40
1.25
  9
$DIMTP
 40
0
  9
$DIMTM
 40
0
  9
$DIMTXT
 40
2.5
  9
$DIMCEN
 40
2.5
  9
$DIMTSZ
 40
0
  9
$DIMTOL
 70
    0
  9
$DIMLIM
 70
    0
  9
$DIMTIH
 70
    0
  9
$DIMTOH
 70
    0
  9
$DIMSE1
 70
    0
  9
$DIMSE2
 70
    0
  9
$DIMTAD
 70
    1
  9
$DIMZIN
 70
    8
  9
$DIMBLK
  1

  9
$DIMASO
 70
    1
  9
$DIMSHO
 70
    1
  9
$DIMPOST
  1

  9
$DIMAPOST
  1

  9
$DIMALT
 70
    0
  9
$DIMALTD
 70
    3
  9
$DIMALTF
 40
0.03937
  9
$DIMLFAC
 40
1
  9
$DIMTOFL
 70
    1
  9
$DIMTVP
 40
0
  9
$DIMTIX
 70
    0
  9
$DIMSOXD
 70
    0
  9
$DIMSAH
 70
    0
  9
$DIMBLK1
  1

  9
$DIMBLK2
  1

  9
$DIMSTYLE
  2
STANDARD
  9
$DIMCLRD
 70
    0
  9
$DIMCLRE
 70
    0
  9
$DIMCLRT
 70
    0
  9
$DIMTFAC
 40
1
  9
$DIMGAP
 40
0.625
  9
$DIMJUST
 70
    0
  9
$DIMSD1
 70
    0
  9
$DIMSD2
 70
    0
  9
$DIMTOLJ
 70
    0
  9
$DIMTZIN
 70
    8
  9
$DIMALTZ
 70
    0
  9
$DIMALTTZ
 70
    0
  9
$DIMUPT
 70
    0
  9
$DIMDEC
 70
    4
  9
$DIMTDEC
 70
    2
  9
$DIMALTU
 70
    2
  9
$DIMALTTD
 70
    3
  9
$DIMTXSTY
  7
standard
  9
$DIMAUNIT
 70
    0
  9
$DIMADEC
 70
    2
  9
$DIMALTRND
 40
0
  9
$DIMAZIN
 70
    0
  9
$DIMDSEP
 70
    0
  9
$DIMATFIT
 70
    3
  9
$DIMFRAC
 70
    0
  9
$DIMLDRBLK
  1
STANDARD
  9
$DIMLUNIT
 70
    2
  9
$DIMLWD
 70
   -2
  9
$DIMLWE
 70
   -2
  9
$DIMTMOVE
 70
    0
  9
$DIMFXL
 40
1
  9
$DIMFXLON
 70
    0
  9
$DIMJOGANG
 40
0.7854
  9
$DIMTFILL
 70
    0
  9
$DIMTFILLCLR
 70
    0
  9
$DIMARCSYM
 70
    0
  9
$DIMLTYPE
  6

  9
$DIMLTEX1
  6

  9
$DIMLTEX2
  6

  9
$LUNITS
 70
    2
  9
$LUPREC
 70
    4
  9
$SKETCHINC
 40
1
  9
$FILLETRAD
 40
0
  9
$AUNITS
 70
    0
  9
$AUPREC
 70
    2
  9
$MENU
  1
.
  9
$ELEVATION
 40
0
  9
$PELEVATION
 40
0
  9
$THICKNESS
 40
0
  9
$LIMCHECK
 70
    0
  9
$CHAMFERA
 40
0
  9
$CHAMFERB
 40
0
  9
$CHAMFERC
 40
0
  9
$CHAMFERD
 40
0
  9
$SKPOLY
 70
    0
  9
$USRTIMER
 70
    1
  9
$ANGBASE
 50
0
  9
$ANGDIR
 70
    0
  9
$PDMODE
 70
   34
  9
$PDSIZE
 40
0
  9
$PLINEWID
 40
0
  9
$SPLFRAME
 70
    0
  9
$SPLINETYPE
 70
    2
  9
$SPLINESEGS
 70
    8
  9
$HANDSEED
  5
20000
  9
$SURFTAB1
 70
    6
  9
$SURFTAB2
 70
    6
  9
$SURFTYPE
 70
    6
  9
$SURFU
 70
    6
  9
$SURFV
 70
    6
  9
$UCSBASE
  2

  9
$UCSNAME
  2

  9
$UCSORG
 10
0
 20
0
 30
0
  9
$UCSXDIR
 10
1
 20
0
 30
0
  9
$UCSYDIR
 10
0
 20
1
 30
0
  9
$UCSORTHOREF
  2

  9
$UCSORTHOVIEW
 70
    0
  9
$UCSORGTOP
 10
0
 20
0
 30
0
  9
$UCSORGBOTTOM
 10
0
 20
0
 30
0
  9
$UCSORGLEFT
 10
0
 20
0
 30
0
  9
$UCSORGRIGHT
 10
0
 20
0
 30
0
  9
$UCSORGFRONT
 10
0
 20
0
 30
0
  9
$UCSORGBACK
 10
0
 20
0
 30
0
  9
$PUCSBASE
  2

  9
$PUCSNAME
  2

  9
$PUCSORG
 10
0
 20
0
 30
0
  9
$PUCSXDIR
 10
1
 20
0
 30
0
  9
$PUCSYDIR
 10
0
 20
1
 30
0
  9
$PUCSORTHOREF
  2

  9
$PUCSORTHOVIEW
 70
    0
  9
$PUCSORGTOP
 10
0
 20
0
 30
0
  9
$PUCSORGBOTTOM
 10
0
 20
0
 30
0
  9
$PUCSORGLEFT
 10
0
 20
0
 30
0
  9
$PUCSORGRIGHT
 10
0
 20
0
 30
0
  9
$PUCSORGFRONT
 10
0
 20
0
 30
0
  9
$PUCSORGBACK
 10
0
 20
0
 30
0
  9
$USERI1
 70
    0
  9
$USERI2
 70
    0
  9
$USERI3
 70
    0
  9
$USERI4
 70
    0
  9
$USERI5
 70
    0
  9
$USERR1
 40
0
  9
$USERR2
 40
0
  9
$USERR3
 40
0
  9
$USERR4
 40
0
  9
$USERR5
 40
0
  9
$WORLDVIEW
 70
    1
  9
$SHADEDGE
 70
    3
  9
$SHADEDIF
 70
   70
  9
$TILEMODE
 70
    1
  9
$MAXACTVP
 70
   64
  9
$PINSBASE
 10
14.33333333333344
 20
12.5
 30
0
  9
$PLIMCHECK
 70
    0
  9
$PEXTMIN
 10
0
 20
0
 30
0
  9
$PEXTMAX
 10
0
 20
0
 30
0
  9
$GRIDMODE
 70
    1
  9
$SNAPSTYLE
 70
    0
  9
$GRIDUNIT
 10
0
 20
0
  9
$PLIMMIN
 10
0
 20
0
  9
$PLIMMAX
 10
210
 20
297
  9
$UNITMODE
 70
    0
  9
$VISRETAIN
 70
    1
  9
$PLINEGEN
 70
    0
  9
$PSLTSCALE
 70
    1
  9
$TREEDEPTH
 70
 3020
  9
$CMLSTYLE
  2
Standard
  9
$CMLJUST
 70
    0
  9
$CMLSCALE
 40
20
  9
$PROXYGRAPHICS
 70
    1
  9
$MEASUREMENT
 70
    1
  9
$CELWEIGHT
370
   -1
  9
$ENDCAPS
280
    0
  9
$JOINSTYLE
280
    0
  9
$LWDISPLAY
290
    0
  9
$INSUNITS
 70
    0
  9
$HYPERLINKBASE
  1

  9
$STYLESHEET
  1

  9
$XEDIT
290
    1
  9
$CEPSNTYPE
380
    0
  9
$PSTYLEMODE
290
    1
  9
$EXTNAMES
290
    1
  9
$PSVPSCALE
 40
0.9066676337788093
  9
$OLESTARTUP
290
    0
  9
$SORTENTS
280
  127
  9
$INDEXCTL
280
    0
  9
$HIDETEXT
280
    1
  9
$XCLIPFRAME
290
    0
  9
$HALOGAP
280
    0
  9
$OBSCOLOR
 70
  257
  9
$OBSLTYPE
280
    0
  9
$INTERSECTIONDISPLAY
280
    0
  9
$INTERSECTIONCOLOR
 70
  257
  9
$DIMASSOC
280
    0
  9
$PROJECTNAME
  1

  9
$CAMERADISPLAY
290
    0
  9
$LENSLENGTH
 40
50
  9
$CAMERAHEIGHT
 40
0
  9
$STEPSPERSEC
 40
2
  9
$STEPSIZE
 40
50
  9
$3DDWFPREC
 40
2
  9
$PSOLWIDTH
 40
5
  9
$PSOLHEIGHT
 40
80
  9
$LOFTANG1
 40
1.570796326794897
  9
$LOFTANG2
 40
1.570796326794897
  9
$LOFTMAG1
 40
0
  9
$LOFTMAG2
 40
0
  9
$LOFTPARAM
 70
    7
  9
$LOFTNORMALS
280
    1
  9
$LATITUDE
 40
1
  9
$LONGITUDE
 40
1
  9
$NORTHDIRECTION
 40
0
  9
$TIMEZONE
 70
-8000
  9
$LIGHTGLYPHDISPLAY
280
    1
  9
$TILEMODELIGHTSYNCH
280
    1
  9
$SOLIDHIST
280
    1
  9
$SHOWHIST
280
    1
  9
$DWFFRAME
280
    2
  9
$DGNFRAME
280
    0
  9
$REALWORLDSCALE
290
    1
  9
$INTERFERECOLOR
 62
    1
  9
$CSHADOW
280
    0
  9
$SHADOWPLANELOCATION
 40
0
  0
ENDSEC
  0
SECTION
  2
CLASSES
  0
ENDSEC
  0
SECTION
  2
TABLES
  0
TABLE
  2
VPORT
  5
8
330
0
100
AcDbSymbolTable
 70
    1
  0
VPORT
  5
31
330
2
100
AcDbSymbolTableRecord
100
AcDbViewportTableRecord
  2
*ACTIVE
 70
    0
 10
0
 20
0
 11
1
 21
1
 12
255.8011049723759
 22
144.4751381215471
 13
0
 23
0
 14
10
 24
10
 15
10
 25
10
 16
0
 26
0
 36
1
 17
0
 27
0
 37
0
 40
308.8397790055251
 41
1.905187835420393
 42
50
 43
0
 44
0
 50
0
 51
0
 71
    0
 72
  100
 73
    1
 74
    3
 75
    0
 76
    1
 77
    0
 78
    0
281
    0
 65
    1
110
0
120
0
130
0
111
1
121
0
131
0
112
0
122
1
132
0
 79
    0
146
0
348
10020
 60
    7
 61
    5
292
1
282
    1
141
0
142
0
 63
  250
421
3358443
  0
ENDTAB
  0
TABLE
  2
LTYPE
  5
5
330
0
100
AcDbSymbolTable
 70
    4
  0
LTYPE
  5
14
330
5
100
AcDbSymbolTableRecord
100
AcDbLinetypeTableRecord
  2
ByBlock
 70
    0
  3

 72
   65
 73
    0
 40
0
  0
LTYPE
  5
15
330
5
100
AcDbSymbolTableRecord
100
AcDbLinetypeTableRecord
  2
ByLayer
 70
    0
  3

 72
   65
 73
    0
 40
0
  0
LTYPE
  5
16
330
5
100
AcDbSymbolTableRecord
100
AcDbLinetypeTableRecord
  2
Continuous
 70
    0
  3
Solid line
 72
   65
 73
    0
 40
0
  0
LTYPE
  5
32
330
5
100
AcDbSymbolTableRecord
100
AcDbLinetypeTableRecord
  2
DOT
 70
    0
  3
Dot . . . . . . . . . . . . . . . . . . . . . .
 72
   65
 73
    2
 40
6.35
 49
0
 74
    0
 49
-6.35
 74
    0
  0
LTYPE
  5
33
330
5
100
AcDbSymbolTableRecord
100
AcDbLinetypeTableRecord
  2
DOTTINY
 70
    0
  3
Dot (.15x) .....................................
 72
   65
 73
    2
 40
0.9525
 49
0
 74
    0
 49
-0.9525
 74
    0
  0
LTYPE
  5
34
330
5
100
AcDbSymbolTableRecord
100
AcDbLinetypeTableRecord
  2
DOT2
 70
    0
  3
Dot (.5x) .....................................
 72
   65
 73
    2
 40
3.175
 49
0
 74
    0
 49
-3.175
 74
    0
  0
LTYPE
  5
35
330
5
100
AcDbSymbolTableRecord
100
AcDbLinetypeTableRecord
  2
DOTX2
 70
    0
  3
Dot (2x) .  .  .  .  .  .  .  .  .  .  .  .  .
 72
   65
 73
    2
 40
12.7
 49
0
 74
    0
 49
-12.7
 74
    0
  0
LTYPE
  5
36
330
5
100
AcDbSymbolTableRecord
100
AcDbLinetypeTableRecord
  2
DASHED
 70
    0
  3
Dashed _ _ _ _ _ _ _ _ _ _ _ _ _ _ _ _ _
 72
   65
 73
    2
 40
19.05
 49
12.7
 74
    0
 49
-6.35
 74
    0
  0
LTYPE
  5
37
330
5
100
AcDbSymbolTableRecord
100
AcDbLinetypeTableRecord
  2
DASHEDTINY
 70
    0
  3
Dashed (.15x) _ _ _ _ _ _ _ _ _ _ _ _ _ _ _ _ _
 72
   65
 73
    2
 40
2.8575
 49
1.905
 74
    0
 49
-0.9525
 74
    0
  0
LTYPE
  5
38
330
5
100
AcDbSymbolTableRecord
100
AcDbLinetypeTableRecord
  2
DASHED2
 70
    0
  3
Dashed (.5x) _ _ _ _ _ _ _ _ _ _ _ _ _ _ _ _ _
 72
   65
 73
    2
 40
9.524999999999999
 49
6.35
 74
    0
 49
-3.175
 74
    0
  0
LTYPE
  5
39
330
5
100
AcDbSymbolTableRecord
100
AcDbLinetypeTableRecord
  2
DASHEDX2
 70
    0
  3
Dashed (2x) ____  ____  ____  ____  ____  ___
 72
   65
 73
    2
 40
38.09999999999999
 49
25.4
 74
    0
 49
-12.7
 74
    0
  0
LTYPE
  5
3A
330
5
100
AcDbSymbolTableRecord
100
AcDbLinetypeTableRecord
  2
DASHDOT
 70
    0
  3
Dash dot __ . __ . __ . __ . __ . __ . __ . __
 72
   65
 73
    4
 40
25.4
 49
12.7
 74
    0
 49
-6.35
 74
    0
 49
0
 74
    0
 49
-6.35
 74
    0
  0
LTYPE
  5
3B
330
5
100
AcDbSymbolTableRecord
100
AcDbLinetypeTableRecord
  2
DASHDOTTINY
 70
    0
  3
Dash dot (.15x) _._._._._._._._._._._._._._._.
 72
   65
 73
    4
 40
3.81
 49
1.905
 74
    0
 49
-0.9525
 74
    0
 49
0
 74
    0
 49
-0.9525
 74
    0
  0
LTYPE
  5
3C
330
5
100
AcDbSymbolTableRecord
100
AcDbLinetypeTableRecord
  2
DASHDOT2
 70
    0
  3
Dash dot (.5x) _._._._._._._._._._._._._._._.
 72
   65
 73
    4
 40
12.7
 49
6.35
 74
    0
 49
-3.175
 74
    0
 49
0
 74
    0
 49
-3.175
 74
    0
  0
LTYPE
  5
3D
330
5
100
AcDbSymbolTableRecord
100
AcDbLinetypeTableRecord
  2
DASHDOTX2
 70
    0
  3
Dash dot (2x) ____  .  ____  .  ____  .  ___
 72
   65
 73
    4
 40
50.8
 49
25.4
 74
    0
 49
-12.7
 74
    0
 49
0
 74
    0
 49
-12.7
 74
    0
  0
LTYPE
  5
3E
330
5
100
AcDbSymbolTableRecord
100
AcDbLinetypeTableRecord
  2
DIVIDE
 70
    0
  3
Divide ____ . . ____ . . ____ . . ____ . . ____
 72
   65
 73
    6
 40
31.75
 49
12.7
 74
    0
 49
-6.35
 74
    0
 49
0
 74
    0
 49
-6.35
 74
    0
 49
0
 74
    0
 49
-6.35
 74
    0
  0
LTYPE
  5
3F
330
5
100
AcDbSymbolTableRecord
100
AcDbLinetypeTableRecord
  2
DIVIDETINY
 70
    0
  3
Divide (.15x) __..__..__..__..__..__..__..__.._
 72
   65
 73
    6
 40
4.7625
 49
1.905
 74
    0
 49
-0.9525
 74
    0
 49
0
 74
    0
 49
-0.9525
 74
    0
 49
0
 74
    0
 49
-0.9525
 74
    0
  0
LTYPE
  5
40
330
5
100
AcDbSymbolTableRecord
100
AcDbLinetypeTableRecord
  2
DIVIDE2
 70
    0
  3
Divide (.5x) __..__..__..__..__..__..__..__.._
 72
   65
 73
    6
 40
15.875
 49
6.35
 74
    0
 49
-3.175
 74
    0
 49
0
 74
    0
 49
-3.175
 74
    0
 49
0
 74
    0
 49
-3.175
 74
    0
  0
LTYPE
  5
41
330
5
100
AcDbSymbolTableRecord
100
AcDbLinetypeTableRecord
  2
DIVIDEX2
 70
    0
  3
Divide (2x) ________  .  .  ________  .  .  _
 72
   65
 73
    6
 40
63.5
 49
25.4
 74
    0
 49
-12.7
 74
    0
 49
0
 74
    0
 49
-12.7
 74
    0
 49
0
 74
    0
 49
-12.7
 74
    0
  0
LTYPE
  5
42
330
5
100
AcDbSymbolTableRecord
100
AcDbLinetypeTableRecord
  2
BORDER
 70
    0
  3
Border __ __ . __ __ . __ __ . __ __ . __ __ .
 72
   65
 73
    6
 40
44.45
 49
12.7
 74
    0
 49
-6.35
 74
    0
 49
12.7
 74
    0
 49
-6.35
 74
    0
 49
0
 74
    0
 49
-6.35
 74
    0
  0
LTYPE
  5
43
330
5
100
AcDbSymbolTableRecord
100
AcDbLinetypeTableRecord
  2
BORDERTINY
 70
    0
  3
Border (.15x) __.__.__.__.__.__.__.__.__.__.__.
 72
   65
 73
    6
 40
6.6675
 49
1.905
 74
    0
 49
-0.9525
 74
    0
 49
1.905
 74
    0
 49
-0.9525
 74
    0
 49
0
 74
    0
 49
-0.9525
 74
    0
  0
LTYPE
  5
44
330
5
100
AcDbSymbolTableRecord
100
AcDbLinetypeTableRecord
  2
BORDER2
 70
    0
  3
Border (.5x) __.__.__.__.__.__.__.__.__.__.__.
 72
   65
 73
    6
 40
22.225
 49
6.35
 74
    0
 49
-3.175
 74
    0
 49
6.35
 74
    0
 49
-3.175
 74
    0
 49
0
 74
    0
 49
-3.175
 74
    0
  0
LTYPE
  5
45
330
5
100
AcDbSymbolTableRecord
100
AcDbLinetypeTableRecord
  2
BORDERX2
 70
    0
  3
Border (2x) ____  ____  .  ____  ____  .  ___
 72
   65
 73
    6
 40
88.89999999999999
 49
25.4
 74
    0
 49
-12.7
 74
    0
 49
25.4
 74
    0
 49
-12.7
 74
    0
 49
0
 74
    0
 49
-12.7
 74
    0
  0
LTYPE
  5
46
330
5
100
AcDbSymbolTableRecord
100
AcDbLinetypeTableRecord
  2
CENTER
 70
    0
  3
Center ____ _ ____ _ ____ _ ____ _ ____ _ ____
 72
   65
 73
    4
 40
50.8
 49
31.75
 74
    0
 49
-6.35
 74
    0
 49
6.35
 74
    0
 49
-6.35
 74
    0
  0
LTYPE
  5
47
330
5
100
AcDbSymbolTableRecord
100
AcDbLinetypeTableRecord
  2
CENTERTINY
 70
    0
  3
Center (.15x) ___ _ ___ _ ___ _ ___ _ ___ _ ___
 72
   65
 73
    4
 40
7.62
 49
4.7625
 74
    0
 49
-0.9525
 74
    0
 49
0.9525
 74
    0
 49
-0.9525
 74
    0
  0
LTYPE
  5
48
330
5
100
AcDbSymbolTableRecord
100
AcDbLinetypeTableRecord
  2
CENTER2
 70
    0
  3
Center (.5x) ___ _ ___ _ ___ _ ___ _ ___ _ ___
 72
   65
 73
    4
 40
28.575
 49
19.05
 74
    0
 49
-3.175
 74
    0
 49
3.175
 74
    0
 49
-3.175
 74
    0
  0
LTYPE
  5
49
330
5
100
AcDbSymbolTableRecord
100
AcDbLinetypeTableRecord
  2
CENTERX2
 70
    0
  3
Center (2x) ________  __  ________  __  _____
 72
   65
 73
    4
 40
101.6
 49
63.5
 74
    0
 49
-12.7
 74
    0
 49
12.7
 74
    0
 49
-12.7
 74
    0
  0
ENDTAB
  0
TABLE
  2
LAYER
  5
2
330
0
100
AcDbSymbolTable
 70
    1
  0
LAYER
  5
10
330
2
100
AcDbSymbolTableRecord
100
AcDbLayerTableRecord
  2
0
 70
    0
 62
    7
  6
CONTINUOUS
370
    0
390
F
  0
LAYER
  5
4A
330
2
100
AcDbSymbolTableRecord
100
AcDbLayerTableRecord
  2
assi
 70
    0
 62
    3
  6
CONTINUOUS
370
   70
390
F
  0
LAYER
  5
4B
330
2
100
AcDbSymbolTableRecord
100
AcDbLayerTableRecord
  2
assonometria
 70
    0
 62
    7
  6
CONTINUOUS
370
  100
390
F
  0
LAYER
  5
4C
330
2
100
AcDbSymbolTableRecord
100
AcDbLayerTableRecord
  2
assonometria_tratteggio
 70
    0
 62
    7
  6
DASHED2
370
  100
390
F
  0
LAYER
  5
4D
330
2
100
AcDbSymbolTableRecord
100
AcDbLayerTableRecord
  2
base
 70
    0
 62
    1
  6
CONTINUOUS
370
   70
390
F
  0
LAYER
  5
4E
330
2
100
AcDbSymbolTableRecord
100
AcDbLayerTableRecord
  2
linee di costruzione Parallelepipedo
 70
    0
 62
    6
  6
CONTINUOUS
370
   30
390
F
  0
LAYER
  5
4F
330
2
100
AcDbSymbolTableRecord
100
AcDbLayerTableRecord
  2
linee di costruzione Parallelepipedo2
 70
    0
 62
    6
  6
CONTINUOUS
370
    0
390
F
  0
LAYER
  5
50
330
2
100
AcDbSymbolTableRecord
100
AcDbLayerTableRecord
  2
linee di costruzione Parallelepipedo3
 70
    0
 62
    6
  6
CONTINUOUS
370
    0
390
F
  0
LAYER
  5
51
330
2
100
AcDbSymbolTableRecord
100
AcDbLayerTableRecord
  2
linee di costruzione Parallelepipedo4
 70
    0
 62
    6
  6
CONTINUOUS
370
    0
390
F
  0
LAYER
  5
52
330
2
100
AcDbSymbolTableRecord
100
AcDbLayerTableRecord
  2
linee di costruzione1
 70
    0
 62
    4
  6
CONTINUOUS
370
   30
390
F
  0
LAYER
  5
53
330
2
100
AcDbSymbolTableRecord
100
AcDbLayerTableRecord
  2
linee di costruzione2
 70
    0
 62
    4
  6
CONTINUOUS
370
   30
390
F
  0
LAYER
  5
54
330
2
100
AcDbSymbolTableRecord
100
AcDbLayerTableRecord
  2
linee di costruzione3
 70
    0
 62
    4
  6
CONTINUOUS
370
   30
390
F
  0
LAYER
  5
55
330
2
100
AcDbSymbolTableRecord
100
AcDbLayerTableRecord
  2
linee di costruzione4
 70
    0
 62
    5
  6
CONTINUOUS
370
    0
390
F
  0
LAYER
  5
56
330
2
100
AcDbSymbolTableRecord
100
AcDbLayerTableRecord
  2
linee di costruzione5
 70
    0
 62
    5
  6
CONTINUOUS
370
   30
390
F
  0
LAYER
  5
57
330
2
100
AcDbSymbolTableRecord
100
AcDbLayerTableRecord
  2
linee di costruzione6
 70
    0
 62
  181
420
11163135
  6
CONTINUOUS
370
   30
390
F
  0
LAYER
  5
58
330
2
100
AcDbSymbolTableRecord
100
AcDbLayerTableRecord
  2
squadratura
 70
    0
 62
    3
  6
CONTINUOUS
370
   30
390
F
  0
LAYER
  5
59
330
2
100
AcDbSymbolTableRecord
100
AcDbLayerTableRecord
  2
testo
 70
    0
 62
    7
  6
CONTINUOUS
370
    0
390
F
  0
ENDTAB
  0
TABLE
  2
STYLE
  5
3
330
0
100
AcDbSymbolTable
 70
    3
  0
STYLE
  5
5A
330
2
100
AcDbSymbolTableRecord
100
AcDbTextStyleTableRecord
  2
standard
 70
    0
 40
0
 41
1
 50
0
 71
    0
 42
1
  3
standard
  4

  0
ENDTAB
  0
TABLE
  2
VIEW
  5
6
330
0
100
AcDbSymbolTable
 70
    0
  0
ENDTAB
  0
TABLE
  2
UCS
  5
7
330
0
100
AcDbSymbolTable
 70
    0
  0
ENDTAB
  0
TABLE
  2
APPID
  5
9
330
0
100
AcDbSymbolTable
 70
    1
  0
APPID
  5
12
330
9
100
AcDbSymbolTableRecord
100
AcDbRegAppTableRecord
  2
ACAD
 70
    0
  0
APPID
  5
5B
330
9
100
AcDbSymbolTableRecord
100
AcDbRegAppTableRecord
  2
LibreCad
 70
    0
  0
ENDTAB
  0
TABLE
  2
DIMSTYLE
  5
A
330
0
100
AcDbSymbolTable
 70
    1
100
AcDbDimStyleTable
 71
    1
  0
DIMSTYLE
105
5C
330
A
100
AcDbSymbolTableRecord
100
AcDbDimStyleTableRecord
  2
Standard
 70
    0
 40
1
 41
2.5
 42
0.625
 43
0.38
 44
1.25
 45
0
 46
0
 47
0
 48
0
 49
1
140
2.5
141
0.09
142
0
143
25.4
144
1
145
0
146
1
147
0.625
148
0
 71
    0
 72
    0
 73
    0
 74
    1
 75
    0
 76
    0
 77
    0
 78
    8
 79
    0
170
    0
171
    2
172
    0
173
    0
174
    0
175
    0
176
    0
177
    0
178
    0
179
    2
271
    4
272
    4
273
    2
274
    2
275
    0
276
    0
277
    2
278
    0
279
    0
280
    0
281
    0
282
    0
283
    1
284
    0
285
    0
286
    0
288
    0
289
    3
340
standard
341

371
   -2
372
   -2
  0
ENDTAB
  0
TABLE
  2
BLOCK_RECORD
  5
1
330
0
100
AcDbSymbolTable
 70
    2
  0
BLOCK_RECORD
  5
1F
330
1
100
AcDbSymbolTableRecord
100
AcDbBlockTableRecord
  2
*Model_Space
 70
    0
280
    1
281
    0
  0
BLOCK_RECORD
  5
1E
330
1
100
AcDbSymbolTableRecord
100
AcDbBlockTableRecord
  2
*Paper_Space
 70
    0
280
    1
281
    0
  0
ENDTAB
  0
ENDSEC
  0
SECTION
  2
BLOCKS
  0
BLOCK
  5
20
330
1F
100
AcDbEntity
  8
0
100
AcDbBlockBegin
  2
*Model_Space
 70
    0
 10
0
 20
0
 30
0
  3
*Model_Space
  1

  0
ENDBLK
  5
21
330
1F
100
AcDbEntity
  8
0
100
AcDbBlockEnd
  0
BLOCK
  5
1C
330
1B
100
AcDbEntity
  8
0
100
AcDbBlockBegin
  2
*Paper_Space
 70
    0
 10
0
 20
0
 30
0
  3
*Paper_Space
  1

  0
ENDBLK
  5
1D
330
1F
100
AcDbEntity
  8
0
100
AcDbBlockEnd
  0
ENDSEC
  0
SECTION
  2
ENTITIES
  0
LINE
  5
5D
100
AcDbEntity
  8
squadratura
  6
ByLayer
 62
  256
370
   -1
100
AcDbLine
 10
0
 20
0
 11
200
 21
0
  0
LINE
  5
5E
100
AcDbEntity
  8
squadratura
  6
ByLayer
 62
  256
370
   -1
100
AcDbLine
 10
200
 20
0
 11
200
 21
280
  0
LINE
  5
5F
100
AcDbEntity
  8
squadratura
  6
ByLayer
 62
  256
370
   -1
100
AcDbLine
 10
200
 20
280
 11
0
 21
280
  0
LINE
  5
60
100
AcDbEntity
  8
squadratura
  6
ByLayer
 62
  256
370
   -1
100
AcDbLine
 10
0
 20
280
 11
0
 21
0
  0
LINE
  5
61
100
AcDbEntity
  8
assi
  6
ByLayer
 62
  256
370
   -1
100
AcDbLine
 10
200
 20
100
 11
2.14306111918916e-014
 21
100
  0
LINE
  5
62
100
AcDbEntity
  8
assi
  6
ByLayer
 62
  256
370
   -1
100
AcDbLine
 10
100
 20
0
 11
100
 21
278
  0
LINE
  5
63
100
AcDbEntity
  8
assi
  6
ByLayer
 62
  256
370
   -1
100
AcDbLine
 10
100
 20
100
 11
13.39745962155612
 21
150
  0
LINE
  5
64
100
AcDbEntity
  8
assi
  6
ByLayer
 62
  256
370
   -1
100
AcDbLine
 10
100
 20
100
 11
186.6025403784439
 21
150
  0
MTEXT
  5
65
100
AcDbEntity
  8
assi
  6
ByLayer
 62
  256
370
   -1
100
AcDbMText
 10
10
 20
140
 30
0
 40
8
 41
3.555555555555555
 71
    5
 72
    1
  1
x
  7
standard
210
0
220
0
230
1
 50
0
 73
    2
 44
1
  0
MTEXT
  5
66
100
AcDbEntity
  8
assi
  6
ByLayer
 62
  256
370
   -1
100
AcDbMText
 10
190
 20
150
 30
0
 40
8
 41
3.555555555555555
 71
    5
 72
    1
  1
y
  7
standard
210
0
220
0
230
1
 50
0
 73
    2
 44
1
  0
MTEXT
  5
67
100
AcDbEntity
  8
assi
  6
ByLayer
 62
  256
370
   -1
100
AcDbMText
 10
110
 20
260
 30
0
 40
8
 41
3.555555555555555
 71
    5
 72
    1
  1
z
  7
standard
210
0
220
0
230
1
 50
0
 73
    2
 44
1
  0
LINE
  5
68
100
AcDbEntity
  8
base
  6
ByLayer
 62
  256
370
   -1
100
AcDbLine
 10
110
 20
90
 11
110
 21
40
  0
LINE
  5
69
100
AcDbEntity
  8
base
  6
ByLayer
 62
  256
370
   -1
100
AcDbLine
 10
110
 20
40
 11
190
 21
40
  0
LINE
  5
6A
100
AcDbEntity
  8
base
  6
ByLayer
 62
  256
370
   -1
100
AcDbLine
 10
190
 20
40
 11
190
 21
90
  0
LINE
  5
6B
100
AcDbEntity
  8
base
  6
ByLayer
 62
  256
370
   -1
100
AcDbLine
 10
190
 20
90
 11
110
 21
90
  0
LINE
  5
6C
100
AcDbEntity
  8
base
  6
ByLayer
 62
  256
370
   -1
100
AcDbLine
 10
130
 20
50
 11
150
 21
50
  0
LINE
  5
6D
100
AcDbEntity
  8
base
  6
ByLayer
 62
  256
370
   -1
100
AcDbLine
 10
150
 20
50
 11
160
 21
67.32050807568878
  0
LINE
  5
6E
100
AcDbEntity
  8
base
  6
ByLayer
 62
  256
370
   -1
100
AcDbLine
 10
160
 20
67.32050807568878
 11
150
 21
84.64101615137756
  0
LINE
  5
6F
100
AcDbEntity
  8
base
  6
ByLayer
 62
  256
370
   -1
100
AcDbLine
 10
150
 20
84.64101615137756
 11
130
 21
84.64101615137754
  0
LINE
  5
70
100
AcDbEntity
  8
base
  6
ByLayer
 62
  256
370
   -1
100
AcDbLine
 10
130
 20
84.64101615137754
 11
120
 21
67.32050807568879
  0
LINE
  5
71
100
AcDbEntity
  8
base
  6
ByLayer
 62
  256
370
   -1
100
AcDbLine
 10
120
 20
67.32050807568879
 11
130
 21
50
  0
MTEXT
  5
72
100
AcDbEntity
  8
base
  6
ByLayer
 62
  256
370
   -1
100
AcDbMText
 10
105.8730937712761
 20
36.28514481362983
 30
0
 40
5
 41
3.333333333333333
 71
    1
 72
    1
  1
A
  7
standard
210
0
220
0
230
1
 50
0
 73
    2
 44
1
  0
MTEXT
  5
73
100
AcDbEntity
  8
base
  6
ByLayer
 62
  256
370
   -1
100
AcDbMText
 10
193.3550867466028
 20
91.95550397974685
 30
0
 40
5
 41
2.222222222222532
 71
    1
 72
    1
  1
C
  7
standard
210
0
220
0
230
1
 50
0
 73
    2
 44
1
  0
MTEXT
  5
74
100
AcDbEntity
  8
base
  6
ByLayer
 62
  256
370
   -1
100
AcDbMText
 10
192.360973190065
 20
37.27925837016764
 30
0
 40
5
 41
2.777777777777778
 71
    1
 72
    1
  1
B
  7
standard
210
0
220
0
230
1
 50
0
 73
    2
 44
1
  0
MTEXT
  5
75
100
AcDbEntity
  8
base
  6
ByLayer
 62
  256
370
   -1
100
AcDbMText
 10
103.8848666582005
 20
93.44667431455356
 30
0
 40
5
 41
2.777777777778088
 71
    1
 72
    1
  1
D
  7
standard
210
0
220
0
230
1
 50
0
 73
    2
 44
1
  0
MTEXT
  5
76
100
AcDbEntity
  8
base
  6
ByLayer
 62
  256
370
   -1
100
AcDbMText
 10
114.8201157801163
 20
69.58794895764626
 30
0
 40
5
 41
2.222222222222222
 71
    1
 72
    1
  1
E
  7
standard
210
0
220
0
230
1
 50
0
 73
    2
 44
1
  0
MTEXT
  5
77
100
AcDbEntity
  8
base
  6
ByLayer
 62
  256
370
   -1
100
AcDbMText
 10
127.7435920151078
 20
48.21450749208348
 30
0
 40
5
 41
2.222222222222222
 71
    1
 72
    1
  1
F
  7
standard
210
0
220
0
230
1
 50
0
 73
    2
 44
1
  0
MTEXT
  5
78
100
AcDbEntity
  8
base
  6
ByLayer
 62
  256
370
   -1
100
AcDbMText
 10
126.74947845857
 20
87.97904975359563
 30
0
 40
5
 41
2.222222222222222
 71
    1
 72
    1
  1
L
  7
standard
210
0
220
0
230
1
 50
0
 73
    2
 44
1
  0
MTEXT
  5
79
100
AcDbEntity
  8
base
  6
ByLayer
 62
  256
370
   -1
100
AcDbMText
 10
163.0237683499638
 20
69.59269356448928
 30
0
 40
5
 41
2.777777777777778
 71
    1
 72
    1
  1
H
  7
standard
210
0
220
0
230
1
 50
0
 73
    2
 44
1
  0
MTEXT
  5
7A
100
AcDbEntity
  8
base
  6
ByLayer
 62
  256
370
   -1
100
AcDbMText
 10
151.9795106962511
 20
49.07361891366231
 30
0
 40
5
 41
2.777777777778088
 71
    1
 72
    1
  1
G
  7
standard
210
0
220
0
230
1
 50
0
 73
    2
 44
1
  0
MTEXT
  5
7B
100
AcDbEntity
  8
base
  6
ByLayer
 62
  256
370
   -1
100
AcDbMText
 10
152.2140408210559
 20
88.75435699612011
 30
0
 40
5
 41
0
 71
    1
 72
    1
  1
I
  7
standard
210
0
220
0
230
1
 50
0
 73
    2
 44
1
  0
LINE
  5
7C
100
AcDbEntity
  8
linee di costruzione Parallelepipedo
  6
ByLayer
 62
  256
370
   -1
100
AcDbLine
 10
110
 20
90
 11
110
 21
100
  0
LINE
  5
7D
100
AcDbEntity
  8
linee di costruzione Parallelepipedo
  6
ByLayer
 62
  256
370
   -1
100
AcDbLine
 10
190
 20
90
 11
190
 21
100
  0
LINE
  5
7E
100
AcDbEntity
  8
linee di costruzione Parallelepipedo
  6
ByLayer
 62
  256
370
   -1
100
AcDbLine
 10
110
 20
90
 11
100
 21
90
  0
LINE
  5
7F
100
AcDbEntity
  8
linee di costruzione Parallelepipedo
  6
ByLayer
 62
  256
370
   -1
100
AcDbLine
 10
110
 20
40
 11
100
 21
40
  0
LINE
  5
80
100
AcDbEntity
  8
linee di costruzione1
  6
ByLayer
 62
  256
370
   -1
100
AcDbLine
 10
130
 20
50
 11
130
 21
100
  0
LINE
  5
81
100
AcDbEntity
  8
linee di costruzione1
  6
ByLayer
 62
  256
370
   -1
100
AcDbLine
 10
150
 20
50
 11
150
 21
100
  0
LINE
  5
82
100
AcDbEntity
  8
linee di costruzione1
  6
ByLayer
 62
  256
370
   -1
100
AcDbLine
 10
160
 20
67.32050807568878
 11
100
 21
67.32050807568878
  0
LINE
  5
83
100
AcDbEntity
  8
linee di costruzione1
  6
ByLayer
 62
  256
370
   -1
100
AcDbLine
 10
130
 20
84.64101615137754
 11
100
 21
84.64101615137754
  0
LINE
  5
84
100
AcDbEntity
  8
linee di costruzione1
  6
ByLayer
 62
  256
370
   -1
100
AcDbLine
 10
130
 20
50
 11
100
 21
50
  0
LINE
  5
85
100
AcDbEntity
  8
linee di costruzione1
  6
ByLayer
 62
  256
370
   -1
100
AcDbLine
 10
120
 20
67.32050807568879
 11
120
 21
100
  0
LINE
  5
86
100
AcDbEntity
  8
linee di costruzione1
  6
ByLayer
 62
  256
370
   -1
100
AcDbLine
 10
160
 20
67.32050807568878
 11
160
 21
100
  0
ARC
  5
87
100
AcDbEntity
  8
linee di costruzione2
  6
ByLayer
 62
  256
370
   -1
100
AcDbCircle
 10
100
 20
100
 40
30
100
AcDbArc
 50
0
 51
29.99999999999999
  0
ARC
  5
88
100
AcDbEntity
  8
linee di costruzione2
  6
ByLayer
 62
  256
370
   -1
100
AcDbCircle
 10
100
 20
100
 40
50
100
AcDbArc
 50
0
 51
29.99999999999999
  0
ARC
  5
89
100
AcDbEntity
  8
linee di costruzione2
  6
ByLayer
 62
  256
370
   -1
100
AcDbCircle
 10
100
 20
100
 40
60
100
AcDbArc
 50
0
 51
30
  0
ARC
  5
8A
100
AcDbEntity
  8
linee di costruzione2
  6
ByLayer
 62
  256
370
   -1
100
AcDbCircle
 10
100
 20
100
 40
15.35898384862246
100
AcDbArc
 50
150
 51
270
  0
ARC
  5
8B
100
AcDbEntity
  8
linee di costruzione2
  6
ByLayer
 62
  256
370
   -1
100
AcDbCircle
 10
100
 20
100
 40
32.67949192431122
100
AcDbArc
 50
150
 51
270
  0
ARC
  5
8C
100
AcDbEntity
  8
linee di costruzione2
  6
ByLayer
 62
  256
370
   -1
100
AcDbCircle
 10
100
 20
100
 40
50
100
AcDbArc
 50
150
 51
270
  0
LINE
  5
8D
100
AcDbEntity
  8
linee di costruzione Parallelepipedo3
  6
ByLayer
 62
  256
370
   -1
100
AcDbLine
 10
108.6602540378444
 20
105
 11
48.03847577293372
 21
140
  0
LINE
  5
8E
100
AcDbEntity
  8
linee di costruzione Parallelepipedo3
  6
ByLayer
 62
  256
370
   -1
100
AcDbLine
 10
177.9422863405995
 20
145
 11
117.3205080756888
 21
180
  0
LINE
  5
8F
100
AcDbEntity
  8
linee di costruzione Parallelepipedo3
  6
ByLayer
 62
  256
370
   -1
100
AcDbLine
 10
91.33974596215572
 20
104.9999999999999
 11
177.9422863405996
 21
154.9999999999999
  0
LINE
  5
90
100
AcDbEntity
  8
linee di costruzione Parallelepipedo3
  6
ByLayer
 62
  256
370
   -1
100
AcDbLine
 10
48.03847577293368
 20
130
 11
134.6410161513776
 21
180
  0
LINE
  5
91
100
AcDbEntity
  8
linee di costruzione3
  6
ByLayer
 62
  256
370
   -1
100
AcDbLine
 10
86.69872981077809
 20
107.6794919243112
 11
173.301270189222
 21
157.6794919243112
  0
LINE
  5
92
100
AcDbEntity
  8
linee di costruzione3
  6
ByLayer
 62
  256
370
   -1
100
AcDbLine
 10
71.69872981077808
 20
116.3397459621556
 11
158.301270189222
 21
166.3397459621556
  0
LINE
  5
93
100
AcDbEntity
  8
linee di costruzione3
  6
ByLayer
 62
  256
370
   -1
100
AcDbLine
 10
56.69872981077807
 20
125
 11
143.301270189222
 21
175
  0
LINE
  5
94
100
AcDbEntity
  8
linee di costruzione3
  6
ByLayer
 62
  256
370
   -1
100
AcDbLine
 10
125.9807621135332
 20
115
 11
65.35898384862244
 21
150
  0
LINE
  5
95
100
AcDbEntity
  8
linee di costruzione3
  6
ByLayer
 62
  256
370
   -1
100
AcDbLine
 10
143.3012701892219
 20
125
 11
82.67949192431121
 21
160
  0
LINE
  5
96
100
AcDbEntity
  8
linee di costruzione3
  6
ByLayer
 62
  256
370
   -1
100
AcDbLine
 10
151.9615242270663
 20
130
 11
91.3397459621556
 21
165
  0
ARC
  5
97
100
AcDbEntity
  8
linee di costruzione2
  6
ByLayer
 62
  256
370
   -1
100
AcDbCircle
 10
100
 20
100
 40
20
100
AcDbArc
 50
0
 51
29.99999999999998
  0
LINE
  5
98
100
AcDbEntity
  8
linee di costruzione3
  6
ByLayer
 62
  256
370
   -1
100
AcDbLine
 10
117.3205080756888
 20
110
 11
56.69872981077811
 21
145
  0
ARC
  5
99
100
AcDbEntity
  8
linee di costruzione Parallelepipedo2
  6
ByLayer
 62
  256
370
   -1
100
AcDbCircle
 10
100
 20
100
 40
90
100
AcDbArc
 50
0
 51
29.99999999999999
  0
ARC
  5
9A
100
AcDbEntity
  8
linee di costruzione Parallelepipedo2
  6
ByLayer
 62
  256
370
   -1
100
AcDbCircle
 10
99.99999999999999
 20
100
 40
10.00000000000001
100
AcDbArc
 50
0
 51
29.99999999999992
  0
ARC
  5
9B
100
AcDbEntity
  8
linee di costruzione Parallelepipedo2
  6
ByLayer
 62
  256
370
   -1
100
AcDbCircle
 10
100
 20
100
 40
10
100
AcDbArc
 50
150
 51
270
  0
ARC
  5
9C
100
AcDbEntity
  8
linee di costruzione Parallelepipedo2
  6
ByLayer
 62
  256
370
   -1
100
AcDbCircle
 10
100
 20
100
 40
60
100
AcDbArc
 50
150
 51
270
  0
LINE
  5
9D
100
AcDbEntity
  8
linee di costruzione Parallelepipedo4
  6
ByLayer
 62
  256
370
   -1
100
AcDbLine
 10
56.69872981077809
 20
135
 11
56.69872981077809
 21
155
  0
LINE
  5
9E
100
AcDbEntity
  8
linee di costruzione Parallelepipedo4
  6
ByLayer
 62
  256
370
   -1
100
AcDbLine
 10
100
 20
110
 11
100
 21
130
  0
LINE
  5
9F
100
AcDbEntity
  8
linee di costruzione Parallelepipedo4
  6
ByLayer
 62
  256
370
   -1
100
AcDbLine
 10
169.2820323027552
 20
149.9999999999999
 11
169.2820323027552
 21
169.9999999999999
  0
LINE
  5
A0
100
AcDbEntity
  8
linee di costruzione Parallelepipedo4
  6
ByLayer
 62
  256
370
   -1
100
AcDbLine
 10
125.9807621135332
 20
175
 11
125.9807621135332
 21
195
  0
LINE
  5
A1
100
AcDbEntity
  8
linee di costruzione Parallelepipedo4
  6
ByLayer
 62
  256
370
   -1
100
AcDbLine
 10
56.69872981077809
 20
155
 11
100
 21
130
  0
LINE
  5
A2
100
AcDbEntity
  8
linee di costruzione Parallelepipedo4
  6
ByLayer
 62
  256
370
   -1
100
AcDbLine
 10
100
 20
130
 11
169.2820323027552
 21
169.9999999999999
  0
LINE
  5
A3
100
AcDbEntity
  8
assonometria_tratteggio
  6
ByLayer
 62
  256
370
   -1
100
AcDbLine
 10
56.69872981077809
 20
135
 11
125.9807621135332
 21
175
  0
LINE
  5
A4
100
AcDbEntity
  8
assonometria_tratteggio
  6
ByLayer
 62
  256
370
   -1
100
AcDbLine
 10
125.9807621135332
 20
175
 11
169.2820323027552
 21
149.9999999999999
  0
LINE
  5
A5
100
AcDbEntity
  8
assonometria_tratteggio
  6
ByLayer
 62
  256
370
   -1
100
AcDbLine
 10
125.9807621135332
 20
195
 11
125.9807621135332
 21
175
  0
LINE
  5
A6
100
AcDbEntity
  8
assonometria
  6
ByLayer
 62
  256
370
   -1
100
AcDbLine
 10
56.69872981077809
 20
155
 11
56.69872981077809
 21
135
  0
LINE
  5
A7
100
AcDbEntity
  8
assonometria
  6
ByLayer
 62
  256
370
   -1
100
AcDbLine
 10
56.69872981077809
 20
135
 11
100
 21
110
  0
LINE
  5
A8
100
AcDbEntity
  8
assonometria
  6
ByLayer
 62
  256
370
   -1
100
AcDbLine
 10
100
 20
110
 11
169.2820323027552
 21
149.9999999999999
  0
LINE
  5
A9
100
AcDbEntity
  8
assonometria
  6
ByLayer
 62
  256
370
   -1
100
AcDbLine
 10
169.2820323027552
 20
149.9999999999999
 11
169.2820323027552
 21
169.9999999999999
  0
LINE
  5
AA
100
AcDbEntity
  8
assonometria
  6
ByLayer
 62
  256
370
   -1
100
AcDbLine
 10
169.2820323027552
 20
169.9999999999999
 11
100
 21
130
  0
LINE
  5
AB
100
AcDbEntity
  8
assonometria
  6
ByLayer
 62
  256
370
   -1
100
AcDbLine
 10
100
 20
130
 11
56.69872981077809
 21
155
  0
LINE
  5
AC
100
AcDbEntity
  8
linee di costruzione5
  6
ByLayer
 62
  256
370
   -1
100
AcDbLine
 10
82.67949192431126
 20
140
 11
82.67949192431126
 21
160
  0
LINE
  5
AD
100
AcDbEntity
  8
linee di costruzione5
  6
ByLayer
 62
  256
370
   -1
100
AcDbLine
 10
100
 20
150
 11
100
 21
170
  0
LINE
  5
AE
100
AcDbEntity
  8
linee di costruzione5
  6
ByLayer
 62
  256
370
   -1
100
AcDbLine
 10
123.6602540378444
 20
146.3397459621556
 11
123.6602540378444
 21
166.3397459621556
  0
LINE
  5
AF
100
AcDbEntity
  8
linee di costruzione5
  6
ByLayer
 62
  256
370
   -1
100
AcDbLine
 10
130
 20
132.6794919243112
 11
130
 21
152.6794919243112
  0
LINE
  5
B0
100
AcDbEntity
  8
linee di costruzione5
  6
ByLayer
 62
  256
370
   -1
100
AcDbLine
 10
112.6794919243113
 20
122.6794919243112
 11
112.6794919243113
 21
142.6794919243112
  0
LINE
  5
B1
100
AcDbEntity
  8
linee di costruzione5
  6
ByLayer
 62
  256
370
   -1
100
AcDbLine
 10
89.01923788646691
 20
126.3397459621556
 11
89.01923788646691
 21
146.3397459621556
  0
LINE
  5
B2
100
AcDbEntity
  8
linee di costruzione5
  6
ByLayer
 62
  256
370
   -1
100
AcDbLine
 10
112.6794919243112
 20
142.6794919243112
 11
130
 21
152.6794919243112
  0
LINE
  5
B3
100
AcDbEntity
  8
linee di costruzione5
  6
ByLayer
 62
  256
370
   -1
100
AcDbLine
 10
130
 20
152.6794919243112
 11
123.6602540378444
 21
166.3397459621556
  0
LINE
  5
B4
100
AcDbEntity
  8
linee di costruzione5
  6
ByLayer
 62
  256
370
   -1
100
AcDbLine
 10
123.6602540378444
 20
166.3397459621556
 11
100
 21
170
  0
LINE
  5
B5
100
AcDbEntity
  8
linee di costruzione5
  6
ByLayer
 62
  256
370
   -1
100
AcDbLine
 10
100
 20
170
 11
82.67949192431126
 21
160
  0
LINE
  5
B6
100
AcDbEntity
  8
linee di costruzione5
  6
ByLayer
 62
  256
370
   -1
100
AcDbLine
 10
82.67949192431126
 20
160
 11
89.01923788646691
 21
146.3397459621556
  0
LINE
  5
B7
100
AcDbEntity
  8
linee di costruzione5
  6
ByLayer
 62
  256
370
   -1
100
AcDbLine
 10
89.01923788646691
 20
146.3397459621556
 11
112.6794919243112
 21
142.6794919243112
  0
LINE
  5
B8
100
AcDbEntity
  8
linee di costruzione4
  6
ByLayer
 62
  256
370
   -1
100
AcDbLine
 10
89.01923788646691
 20
126.3397459621556
 11
112.6794919243113
 21
122.6794919243112
  0
LINE
  5
B9
100
AcDbEntity
  8
linee di costruzione4
  6
ByLayer
 62
  256
370
   -1
100
AcDbLine
 10
112.6794919243113
 20
122.6794919243112
 11
130
 21
132.6794919243112
  0
LINE
  5
BA
100
AcDbEntity
  8
linee di costruzione4
  6
ByLayer
 62
  256
370
   -1
100
AcDbLine
 10
130
 20
132.6794919243112
 11
123.6602540378444
 21
146.3397459621556
  0
LINE
  5
BB
100
AcDbEntity
  8
linee di costruzione4
  6
ByLayer
 62
  256
370
   -1
100
AcDbLine
 10
123.6602540378444
 20
146.3397459621556
 11
100
 21
150
  0
LINE
  5
BC
100
AcDbEntity
  8
linee di costruzione4
  6
ByLayer
 62
  256
370
   -1
100
AcDbLine
 10
100
 20
150
 11
82.67949192431126
 21
140
  0
LINE
  5
BD
100
AcDbEntity
  8
linee di costruzione4
  6
ByLayer
 62
  256
370
   -1
100
AcDbLine
 10
82.67949192431126
 20
140
 11
89.01923788646687
 21
126.3397459621557
  0
LINE
  5
BE
100
AcDbEntity
  8
linee di costruzione6
  6
ByLayer
 62
  256
370
   -1
100
AcDbLine
 10
82.67949192431126
 20
160
 11
82.67949192431126
 21
240
  0
LINE
  5
BF
100
AcDbEntity
  8
linee di costruzione6
  6
ByLayer
 62
  256
370
   -1
100
AcDbLine
 10
89.0192378864669
 20
146.3397459621557
 11
89.0192378864669
 21
226.3397459621557
  0
LINE
  5
C0
100
AcDbEntity
  8
linee di costruzione6
  6
ByLayer
 62
  256
370
   -1
100
AcDbLine
 10
112.6794919243113
 20
142.6794919243112
 11
112.6794919243113
 21
222.6794919243112
  0
LINE
  5
C1
100
AcDbEntity
  8
linee di costruzione6
  6
ByLayer
 62
  256
370
   -1
100
AcDbLine
 10
130
 20
152.6794919243112
 11
130
 21
232.6794919243112
  0
LINE
  5
C2
100
AcDbEntity
  8
linee di costruzione6
  6
ByLayer
 62
  256
370
   -1
100
AcDbLine
 10
123.6602540378444
 20
166.3397459621556
 11
123.6602540378444
 21
246.3397459621556
  0
LINE
  5
C3
100
AcDbEntity
  8
linee di costruzione6
  6
ByLayer
 62
  256
370
   -1
100
AcDbLine
 10
100
 20
170
 11
100
 21
250
  0
LINE
  5
C4
100
AcDbEntity
  8
linee di costruzione6
  6
ByLayer
 62
  256
370
   -1
100
AcDbLine
 10
82.67949192431126
 20
240
 11
89.0192378864669
 21
226.3397459621557
  0
LINE
  5
C5
100
AcDbEntity
  8
linee di costruzione6
  6
ByLayer
 62
  256
370
   -1
100
AcDbLine
 10
89.0192378864669
 20
226.3397459621557
 11
112.6794919243113
 21
222.6794919243112
  0
LINE
  5
C6
100
AcDbEntity
  8
linee di costruzione6
  6
ByLayer
 62
  256
370
   -1
100
AcDbLine
 10
112.6794919243113
 20
222.6794919243112
 11
130
 21
232.6794919243112
  0
LINE
  5
C7
100
AcDbEntity
  8
linee di costruzione6
  6
ByLayer
 62
  256
370
   -1
100
AcDbLine
 10
130
 20
232.6794919243112
 11
123.6602540378444
 21
246.3397459621556
  0
LINE
  5
C8
100
AcDbEntity
  8
linee di costruzione6
  6
ByLayer
 62
  256
370
   -1
100
AcDbLine
 10
123.6602540378444
 20
246.3397459621556
 11
100
 21
250
  0
LINE
  5
C9
100
AcDbEntity
  8
linee di costruzione6
  6
ByLayer
 62
  256
370
   -1
100
AcDbLine
 10
100
 20
250
 11
82.67949192431126
 21
240
  0
LINE
  5
CA
100
AcDbEntity
  8
linee di costruzione6
  6
ByLayer
 62
  256
370
   -1
100
AcDbLine
 10
82.67949192431126
 20
240
 11
89.0192378864669
 21
226.3397459621557
  0
LINE
  5
CB
100
AcDbEntity
  8
linee di costruzione6
  6
ByLayer
 62
  256
370
   -1
100
AcDbLine
 10
89.0192378864669
 20
226.3397459621557
 11
112.6794919243113
 21
222.6794919243112
  0
LINE
  5
CC
100
AcDbEntity
  8
linee di costruzione6
  6
ByLayer
 62
  256
370
   -1
100
AcDbLine
 10
112.6794919243113
 20
222.6794919243112
 11
130
 21
232.6794919243112
  0
LINE
  5
CD
100
AcDbEntity
  8
linee di costruzione6
  6
ByLayer
 62
  256
370
   -1
100
AcDbLine
 10
130
 20
232.6794919243112
 11
123.6602540378445
 21
246.3397459621555
  0
LINE
  5
CE
100
AcDbEntity
  8
linee di costruzione6
  6
ByLayer
 62
  256
370
   -1
100
AcDbLine
 10
123.6602540378445
 20
246.3397459621555
 11
100
 21
250
  0
LINE
  5
CF
100
AcDbEntity
  8
linee di costruzione6
  6
ByLayer
 62
  256
370
   -1
100
AcDbLine
 10
100
 20
250
 11
82.67949192431126
 21
240
  0
LINE
  5
D0
100
AcDbEntity
  8
assonometria
  6
ByLayer
 62
  256
370
   -1
100
AcDbLine
 10
82.67949192431126
 20
240
 11
89.0192378864669
 21
226.3397459621557
  0
LINE
  5
D1
100
AcDbEntity
  8
assonometria
  6
ByLayer
 62
  256
370
   -1
100
AcDbLine
 10
89.0192378864669
 20
226.3397459621557
 11
112.6794919243113
 21
222.6794919243112
  0
LINE
  5
D2
100
AcDbEntity
  8
assonometria
  6
ByLayer
 62
  256
370
   -1
100
AcDbLine
 10
112.6794919243113
 20
222.6794919243112
 11
130
 21
232.6794919243112
  0
LINE
  5
D3
100
AcDbEntity
  8
assonometria
  6
ByLayer
 62
  256
370
   -1
100
AcDbLine
 10
130
 20
232.6794919243112
 11
123.6602540378445
 21
246.3397459621555
  0
LINE
  5
D4
100
AcDbEntity
  8
assonometria
  6
ByLayer
 62
  256
370
   -1
100
AcDbLine
 10
123.6602540378445
 20
246.3397459621555
 11
100
 21
250
  0
LINE
  5
D5
100
AcDbEntity
  8
assonometria
  6
ByLayer
 62
  256
370
   -1
100
AcDbLine
 10
100
 20
250
 11
82.67949192431126
 21
240
  0
LINE
  5
D6
100
AcDbEntity
  8
assonometria
  6
ByLayer
 62
  256
370
   -1
100
AcDbLine
 10
82.67949192431126
 20
240
 11
82.67949192431121
 21
160
  0
LINE
  5
D7
100
AcDbEntity
  8
assonometria
  6
ByLayer
 62
  256
370
   -1
100
AcDbLine
 10
82.67949192431121
 20
160
 11
89.0192378864669
 21
146.3397459621557
  0
LINE
  5
D8
100
AcDbEntity
  8
assonometria
  6
ByLayer
 62
  256
370
   -1
100
AcDbLine
 10
89.0192378864669
 20
146.3397459621557
 11
112.6794919243112
 21
142.6794919243112
  0
LINE
  5
D9
100
AcDbEntity
  8
assonometria
  6
ByLayer
 62
  256
370
   -1
100
AcDbLine
 10
112.6794919243112
 20
142.6794919243112
 11
130
 21
152.6794919243112
  0
LINE
  5
DA
100
AcDbEntity
  8
assonometria
  6
ByLayer
 62
  256
370
   -1
100
AcDbLine
 10
130
 20
152.6794919243112
 11
130
 21
232.6794919243112
  0
LINE
  5
DB
100
AcDbEntity
  8
assonometria
  6
ByLayer
 62
  256
370
   -1
100
AcDbLine
 10
112.6794919243113
 20
222.6794919243112
 11
112.6794919243113
 21
142.6794919243112
  0
LINE
  5
DC
100
AcDbEntity
  8
assonometria
  6
ByLayer
 62
  256
370
   -1
100
AcDbLine
 10
89.0192378864669
 20
226.3397459621557
 11
89.01923788646691
 21
146.3397459621556
  0
LINE
  5
DD
100
AcDbEntity
  8
assonometria_tratteggio
  6
ByLayer
 62
  256
370
   -1
100
AcDbLine
 10
82.67949192431126
 20
160
 11
100
 21
170
  0
LINE
  5
DE
100
AcDbEntity
  8
assonometria_tratteggio
  6
ByLayer
 62
  256
370
   -1
100
AcDbLine
 10
100
 20
170
 11
123.6602540378444
 21
166.3397459621556
  0
LINE
  5
DF
100
AcDbEntity
  8
assonometria_tratteggio
  6
ByLayer
 62
  256
370
   -1
100
AcDbLine
 10
123.6602540378444
 20
166.3397459621556
 11
130
 21
152.6794919243112
  0
LINE
  5
E0
100
AcDbEntity
  8
assonometria_tratteggio
  6
ByLayer
 62
  256
370
   -1
100
AcDbLine
 10
123.6602540378445
 20
166.3397459621557
 11
123.6602540378445
 21
246.3397459621555
  0
LINE
  5
E1
100
AcDbEntity
  8
assonometria_tratteggio
  6
ByLayer
 62
  256
370
   -1
100
AcDbLine
 10
100.0709042224695
 20
169.9890310786106
 11
100
 21
250
  0
LINE
  5
E2
100
AcDbEntity
  8
linee di costruzione Parallelepipedo4
  6
ByLayer
 62
  256
370
   -1
100
AcDbLine
 10
125.9807621135332
 20
195
 11
82.67949192431121
 21
170
  0
LINE
  5
E3
100
AcDbEntity
  8
linee di costruzione Parallelepipedo4
  6
ByLayer
 62
  256
370
   -1
100
AcDbLine
 10
82.67949192431121
 20
170
 11
56.69872981077809
 21
155
  0
LINE
  5
E4
100
AcDbEntity
  8
linee di costruzione Parallelepipedo4
  6
ByLayer
 62
  256
370
   -1
100
AcDbLine
 10
169.2820323027552
 20
169.9999999999999
 11
130
 21
192.6794919243112
  0
LINE
  5
E5
100
AcDbEntity
  8
linee di costruzione Parallelepipedo4
  6
ByLayer
 62
  256
370
   -1
100
AcDbLine
 10
130
 20
192.6794919243112
 11
125.9807621135332
 21
195
  0
LINE
  5
E6
100
AcDbEntity
  8
assonometria
  6
ByLayer
 62
  256
370
   -1
100
AcDbLine
 10
56.69872981077805
 20
155
 11
82.67949192431121
 21
170
  0
LINE
  5
E7
100
AcDbEntity
  8
assonometria
  6
ByLayer
 62
  256
370
   -1
100
AcDbLine
 10
130
 20
192.6794919243112
 11
169.2820323027552
 21
169.9999999999999
  0
LINE
  5
E8
100
AcDbEntity
  8
assonometria_tratteggio
  6
ByLayer
 62
  256
370
   -1
100
AcDbLine
 10
130
 20
192.6794919243112
 11
125.9807621135332
 21
195
  0
LINE
  5
E9
100
AcDbEntity
  8
assonometria_tratteggio
  6
ByLayer
 62
  256
370
   -1
100
AcDbLine
 10
125.9807621135332
 20
195
 11
82.67949192431126
 21
170.0000000000001
  0
MTEXT
  5
EA
100
AcDbEntity
  8
testo
  6
ByLayer
 62
  256
370
   -1
100
AcDbMText
 10
0
 20
300
 30
0
 40
5
 41
170.1389043175074
 71
    1
 72
    1
  1
Assonometria isometrica di un parallelepipedo \Pe del prima base esagonale ad esso sovrapposto
  7
standard
210
0
220
0
230
1
 50
0
 73
    2
 44
1
  0
MTEXT
  5
EB
100
AcDbEntity
  8
testo
  6
ByLayer
 62
  256
370
   -1
100
AcDbMText
 10
10
 20
30
 30
0
 40
5
 41
26.6666666666669
 71
    1
 72
    1
  1
AB=8cm\PBC=5cm\PAA'=2cm
  7
standard
210
0
220
0
230
1
 50
0
 73
    2
 44
1
  0
MTEXT
  5
EC
100
AcDbEntity
  8
testo
  6
ByLayer
 62
  256
370
   -1
100
AcDbMText
 10
60
 20
40
 30
0
 40
5
 41
24.44444444444468
 71
    1
 72
    1
  1
prisma\PEF=2cm\PEE'=8cm
  7
standard
210
0
220
0
230
1
 50
0
 73
    2
 44
1
  0
MTEXT
  5
ED
100
AcDbEntity
  8
testo
  6
ByLayer
 62
  256
370
   -1
100
AcDbMText
 10
5
 20
40
 30
0
 40
5
 41
49.44444444444492
 71
    1
 72
    1
  1
Parallelepipedo\P
  7
standard
210
0
220
0
230
1
 50
0
 73
    2
 44
1
  0
LINE
  5
EE
100
AcDbEntity
  8
assonometria
  6
ByLayer
 62
  256
370
   -1
100
AcDbLine
 10
100
 20
130
 11
100
 21
110
  0
MTEXT
  5
EF
100
AcDbEntity
  8
assonometria
  6
ByLayer
 62
  256
370
   -1
100
AcDbMText
 10
50
 20
140
 30
0
 40
5
 41
3.333333333333333
 71
    1
 72
    1
  1
A
  7
standard
210
0
220
0
230
1
 50
0
 73
    2
 44
1
  0
MTEXT
  5
F0
100
AcDbEntity
  8
assonometria
  6
ByLayer
 62
  256
370
   -1
100
AcDbMText
 10
50
 20
160
 30
0
 40
5
 41
5.555555555555555
 71
    1
 72
    1
  1
A'
  7
standard
210
0
220
0
230
1
 50
0
 73
    2
 44
1
  0
MTEXT
  5
F1
100
AcDbEntity
  8
assonometria
  6
ByLayer
 62
  256
370
   -1
100
AcDbMText
 10
99
 20
137
 30
0
 40
5
 41
5.00000000000031
 71
    1
 72
    1
  1
D'
  7
standard
210
0
220
0
230
1
 50
0
 73
    2
 44
1
  0
MTEXT
  5
F2
100
AcDbEntity
  8
assonometria
  6
ByLayer
 62
  256
370
   -1
100
AcDbMText
 10
99
 20
109
 30
0
 40
5
 41
2.777777777778088
 71
    1
 72
    1
  1
D
  7
standard
210
0
220
0
230
1
 50
0
 73
    2
 44
1
  0
MTEXT
  5
F3
100
AcDbEntity
  8
assonometria
  6
ByLayer
 62
  256
370
   -1
100
AcDbMText
 10
171
 20
152
 30
0
 40
5
 41
2.222222222222532
 71
    1
 72
    1
  1
C
  7
standard
210
0
220
0
230
1
 50
0
 73
    2
 44
1
  0
MTEXT
  5
F4
100
AcDbEntity
  8
assonometria
  6
ByLayer
 62
  256
370
   -1
100
AcDbMText
 10
171
 20
173
 30
0
 40
5
 41
4.444444444444755
 71
    1
 72
    1
  1
C'
  7
standard
210
0
220
0
230
1
 50
0
 73
    2
 44
1
  0
MTEXT
  5
F5
100
AcDbEntity
  8
assonometria
  6
ByLayer
 62
  256
370
   -1
100
AcDbMText
 10
125
 20
201
 30
0
 40
5
 41
5
 71
    1
 72
    1
  1
B'
  7
standard
210
0
220
0
230
1
 50
0
 73
    2
 44
1
  0
MTEXT
  5
F6
100
AcDbEntity
  8
assonometria
  6
ByLayer
 62
  256
370
   -1
100
AcDbMText
 10
127
 20
181
 30
0
 40
5
 41
2.777777777777778
 71
    1
 72
    1
  1
B
  7
standard
210
0
220
0
230
1
 50
0
 73
    2
 44
1
  0
MTEXT
  5
F7
100
AcDbEntity
  8
assonometria
  6
ByLayer
 62
  256
370
   -1
100
AcDbMText
 10
85
 20
147
 30
0
 40
5
 41
2.222222222222222
 71
    1
 72
    1
  1
E
  7
standard
210
0
220
0
230
1
 50
0
 73
    2
 44
1
  0
MTEXT
  5
F8
100
AcDbEntity
  8
assonometria
  6
ByLayer
 62
  256
370
   -1
100
AcDbMText
 10
89
 20
233
 30
0
 40
5
 41
4.444444444444445
 71
    1
 72
    1
  1
E'
  7
standard
210
0
220
0
230
1
 50
0
 73
    2
 44
1
  0
MTEXT
  5
F9
100
AcDbEntity
  8
assonometria
  6
ByLayer
 62
  256
370
   -1
100
AcDbMText
 10
79
 20
244
 30
0
 40
5
 41
4.444444444444445
 71
    1
 72
    1
  1
F'
  7
standard
210
0
220
0
230
1
 50
0
 73
    2
 44
1
  0
MTEXT
  5
FA
100
AcDbEntity
  8
assonometria
  6
ByLayer
 62
  256
370
   -1
100
AcDbMText
 10
98
 20
256
 30
0
 40
5
 41
5.00000000000031
 71
    1
 72
    1
  1
G'
  7
standard
210
0
220
0
230
1
 50
0
 73
    2
 44
1
  0
MTEXT
  5
FB
100
AcDbEntity
  8
assonometria
  6
ByLayer
 62
  256
370
   -1
100
AcDbMText
 10
124
 20
253
 30
0
 40
5
 41
5
 71
    1
 72
    1
  1
H'
  7
standard
210
0
220
0
230
1
 50
0
 73
    2
 44
1
  0
MTEXT
  5
FC
100
AcDbEntity
  8
assonometria
  6
ByLayer
 62
  256
370
   -1
100
AcDbMText
 10
132
 20
235
 30
0
 40
5
 41
2.222222222222222
 71
    1
 72
    1
  1
I'
  7
standard
210
0
220
0
230
1
 50
0
 73
    2
 44
1
  0
MTEXT
  5
FD
100
AcDbEntity
  8
assonometria
  6
ByLayer
 62
  256
370
   -1
100
AcDbMText
 10
111
 20
230
 30
0
 40
5
 41
4.444444444444445
 71
    1
 72
    1
  1
L'
  7
standard
210
0
220
0
230
1
 50
0
 73
    2
 44
1
  0
MTEXT
  5
FE
100
AcDbEntity
  8
assonometria
  6
ByLayer
 62
  256
370
   -1
100
AcDbMText
 10
108
 20
142
 30
0
 40
5
 41
2.222222222222222
 71
    1
 72
    1
  1
L
  7
standard
210
0
220
0
230
1
 50
0
 73
    2
 44
1
  0
MTEXT
  5
FF
100
AcDbEntity
  8
assonometria
  6
ByLayer
 62
  256
370
   -1
100
AcDbMText
 10
78
 20
162
 30
0
 40
5
 41
2.222222222222222
 71
    1
 72
    1
  1
F
  7
standard
210
0
220
0
230
1
 50
0
 73
    2
 44
1
  0
MTEXT
  5
100
100
AcDbEntity
  8
assonometria
  6
ByLayer
 62
  256
370
   -1
100
AcDbMText
 10
102
 20
176
 30
0
 40
5
 41
2.777777777778088
 71
    1
 72
    1
  1
G
  7
standard
210
0
220
0
230
1
 50
0
 73
    2
 44
1
  0
MTEXT
  5
101
100
AcDbEntity
  8
assonometria
  6
ByLayer
 62
  256
370
   -1
100
AcDbMText
 10
125
 20
171
 30
0
 40
5
 41
2.777777777777778
 71
    1
 72
    1
  1
H
  7
standard
210
0
220
0
230
1
 50
0
 73
    2
 44
1
  0
MTEXT
  5
102
100
AcDbEntity
  8
assonometria
  6
ByLayer
 62
  256
370
   -1
100
AcDbMText
 10
132
 20
155
 30
0
 40
5
 41
0
 71
    1
 72
    1
  1
I
  7
standard
210
0
220
0
230
1
 50
0
 73
    2
 44
1
  0
ENDSEC
  0
SECTION
  2
OBJECTS
  0
DICTIONARY
  5
C
330
0
100
AcDbDictionary
281
    1
  3
ACAD_GROUP
350
D
  0
DICTIONARY
  5
D
330
C
100
AcDbDictionary
281
    1
  0
ENDSEC
  0
EOF
